<svg width="10" height="6" viewBox="0 0 10 6" fill="none" xmlns="http://www.w3.org/2000/svg">
<path d="M9.43585 5.85117L5.30382 0.154688C5.15382 -0.0515625 4.84679 -0.0515625 4.69796 0.154688L0.564761 5.85117C0.554589 5.86518 0.548496 5.88173 0.547156 5.899C0.545816 5.91626 0.549283 5.93355 0.55717 5.94896C0.565058 5.96438 0.57706 5.9773 0.591844 5.98631C0.606629 5.99532 0.62362 6.00006 0.640932 6H1.51984C1.5796 6 1.63585 5.9707 1.67101 5.92266L5.00031 1.33359L8.3296 5.92266C8.36476 5.9707 8.42101 6 8.48078 6H9.35968C9.43585 6 9.48039 5.91328 9.43585 5.85117V5.85117Z" fill="#595959"/>
</svg>
